<?xml version="1.0" encoding="utf-8"?>
<!-- Generator: Adobe Illustrator 16.0.4, SVG Export Plug-In . SVG Version: 6.00 Build 0)  -->
<!DOCTYPE svg PUBLIC "-//W3C//DTD SVG 1.1//EN" "http://www.w3.org/Graphics/SVG/1.1/DTD/svg11.dtd">
<svg version="1.1" id="レイヤー_1" xmlns="http://www.w3.org/2000/svg" xmlns:xlink="http://www.w3.org/1999/xlink" x="0px"
	 y="0px" width="265.755px" height="42.695px" viewBox="0 0 265.755 42.695" enable-background="new 0 0 265.755 42.695"
	 xml:space="preserve">
<polygon points="108.704,11.608 91.885,11.608 91.885,18.805 106.264,18.805 106.264,24.098 91.885,24.098 91.885,31.21 
	108.758,31.21 108.758,36.689 85.662,36.689 85.662,6.211 108.704,6.211 "/>
<polygon points="111.197,6.124 117.873,6.124 129.972,27.375 129.972,6.124 135.906,6.124 135.906,36.604 129.538,36.604 
	117.131,14.978 117.131,36.604 111.197,36.604 "/>
<path d="M160.974,9.37c0.934,1.297,1.399,2.848,1.399,4.652c0,1.861-0.472,3.357-1.412,4.487c-0.526,0.634-1.301,1.213-2.323,1.737
	c1.555,0.564,2.729,1.461,3.521,2.688c0.79,1.228,1.187,2.715,1.187,4.465c0,1.808-0.451,3.427-1.357,4.859
	c-0.574,0.951-1.295,1.752-2.157,2.398c-0.974,0.744-2.12,1.254-3.442,1.531c-1.324,0.274-2.759,0.412-4.307,0.412h-13.732V6.125
	h14.729C156.791,6.18,159.424,7.262,160.974,9.37 M144.425,11.418v6.72h7.407c1.324,0,2.397-0.252,3.224-0.755
	c0.825-0.503,1.238-1.396,1.238-2.678c0-1.42-0.546-2.357-1.638-2.812c-0.941-0.316-2.142-0.475-3.603-0.475H144.425z
	 M144.425,23.184v8.125h7.399c1.321,0,2.351-0.179,3.087-0.537c1.335-0.662,2.003-1.931,2.003-3.806
	c0-1.584-0.647-2.674-1.942-3.268c-0.722-0.33-1.738-0.503-3.045-0.517h-7.502V23.184z"/>
<path d="M173.382,6.124h7.207l10.782,30.478h-6.906l-2.01-6.265h-11.226l-2.065,6.265h-6.661L173.382,6.124z M172.963,25.085h7.806
	l-3.851-11.994L172.963,25.085z"/>
<path d="M200.183,6.124h6.473v18.717c0,2.097,0.246,3.623,0.742,4.589c0.769,1.707,2.443,2.562,5.026,2.562
	c2.568,0,4.237-0.854,5.007-2.562c0.494-0.966,0.741-2.492,0.741-4.589V6.124h6.472v18.733c0,3.24-0.502,5.762-1.506,7.567
	c-1.873,3.31-5.443,4.962-10.714,4.962s-8.849-1.652-10.733-4.962c-1.006-1.807-1.508-4.327-1.508-7.567V6.124z"/>
<path d="M247.399,23.41c-1.783,1.488-4.332,2.234-7.645,2.234h-6.345v10.957h-6.328V6.125h13.086c3.019,0,5.423,0.784,7.217,2.356
	c1.793,1.571,2.69,4.004,2.69,7.299C250.076,19.378,249.185,21.922,247.399,23.41 M242.539,12.431
	c-0.808-0.675-1.937-1.013-3.39-1.013h-5.738v8.974h5.738c1.453,0,2.582-0.366,3.39-1.096c0.806-0.731,1.21-1.889,1.21-3.475
	C243.749,14.236,243.345,13.106,242.539,12.431"/>
<path d="M42.626,19.707C41.787,8.685,32.584,0,21.348,0c-4.6,0-8.855,1.459-12.341,3.933L42.626,19.707z"/>
<path d="M6.614,5.907C2.542,9.795,0,15.273,0,21.349c0,6.075,2.542,11.553,6.614,15.44V5.907z"/>
<rect x="189.204" y="18.923" width="8.539" height="4.879"/>
<path d="M78.135,20.246h-7.608v5.087h7.051c-0.318,1.985-1.158,3.592-2.523,4.817c-1.364,1.228-3.114,1.838-5.252,1.838
	c-2.178,0-4.122-0.774-5.831-2.329c-1.709-1.556-2.563-4.203-2.563-7.946c0-3.715,0.789-6.496,2.368-8.348
	c1.577-1.851,3.594-2.775,6.048-2.775c1.282,0,2.445,0.227,3.494,0.682c1.875,0.827,3.053,2.282,3.535,4.363h6.266
	c-0.345-2.937-1.692-5.387-4.043-7.352c-2.351-1.964-5.462-2.945-9.335-2.945c-4.466,0-8.058,1.487-10.772,4.463
	c-2.717,2.976-4.074,6.929-4.074,11.86c0,4.876,1.345,8.72,4.032,11.53c2.577,2.797,5.886,4.195,9.925,4.195
	c2.453,0,4.521-0.516,6.203-1.545c0.917-0.553,1.945-1.484,3.081-2.785V36.6h0.868h4.219V20.246H78.135z"/>
<path d="M42.432,22.551L9.271,6.99v28.714l24.101-11.315l-10.396-4.741v7.181l-2.656,1.252V15.518l19.378,8.835L9.007,38.764
	c3.485,2.473,7.741,3.932,12.34,3.932c11.36,0,20.645-8.873,21.308-20.066C42.579,22.607,42.504,22.585,42.432,22.551"/>
<path d="M259.06,0.403c3.779,0,6.695,2.879,6.695,6.551c0,3.708-2.916,6.623-6.695,6.623c-3.744,0-6.695-2.916-6.695-6.623
	C252.364,3.211,255.388,0.403,259.06,0.403z M259.06,12.282c2.951,0,5.111-2.34,5.111-5.292s-2.195-5.327-5.147-5.327
	c-2.916,0-5.111,2.375-5.111,5.327C253.912,10.158,256.359,12.282,259.06,12.282z M256.54,10.41V3.751
	c0.611-0.108,1.403-0.216,2.447-0.216c1.188,0,2.916,0.216,2.916,1.944c0,0.792-0.612,1.332-1.368,1.548v0.108
	c0.647,0.216,0.972,0.756,1.151,1.62c0.217,1.008,0.36,1.404,0.504,1.656h-1.512c-0.18-0.252-0.324-0.828-0.504-1.656
	c-0.252-1.044-0.828-1.044-2.195-1.044v2.7H256.54z M258.015,6.667c1.117,0,2.34,0,2.34-1.008c0-0.612-0.432-1.044-1.475-1.044
	c-0.433,0-0.721,0.036-0.865,0.072V6.667z"/>
</svg>
