<?xml version="1.0" encoding="utf-8"?>
<!-- Generator: Adobe Illustrator 16.0.4, SVG Export Plug-In . SVG Version: 6.00 Build 0)  -->
<!DOCTYPE svg PUBLIC "-//W3C//DTD SVG 1.1//EN" "http://www.w3.org/Graphics/SVG/1.1/DTD/svg11.dtd">
<svg version="1.1" id="レイヤー_1" xmlns="http://www.w3.org/2000/svg" xmlns:xlink="http://www.w3.org/1999/xlink" x="0px"
	 y="0px" width="892.869px" height="145.572px" viewBox="0.499 -2.025 892.869 145.572"
	 enable-background="new 0.499 -2.025 892.869 145.572" xml:space="preserve">
<g>
	<polygon fill="#1E120D" points="365.963,39.029 309.419,39.029 309.419,63.219 357.761,63.219 357.761,81.015 309.419,81.015 
		309.419,104.927 366.144,104.927 366.144,123.352 288.495,123.352 288.495,20.885 365.963,20.885 	"/>
	<polygon fill="#1E120D" points="374.346,20.59 396.791,20.59 437.466,92.041 437.466,20.59 457.416,20.59 457.416,123.055 
		436.009,123.055 394.297,50.353 394.297,123.055 374.346,123.055 	"/>
	<path fill="#1E120D" d="M541.693,31.505c3.137,4.355,4.705,9.57,4.705,15.64c0,6.257-1.582,11.286-4.747,15.084
		c-1.769,2.136-4.373,4.08-7.812,5.841c5.228,1.9,9.173,4.912,11.834,9.035c2.659,4.129,3.991,9.133,3.991,15.021
		c0,6.066-1.521,11.514-4.562,16.336c-1.938,3.193-4.355,5.884-7.259,8.062c-3.271,2.502-7.129,4.219-11.576,5.145
		c-4.448,0.927-9.271,1.39-14.479,1.39h-46.17V20.589h49.52C527.631,20.777,536.485,24.414,541.693,31.505 M486.058,38.386v22.593
		h24.902c4.448,0,8.062-0.846,10.838-2.536c2.773-1.691,4.162-4.693,4.162-9.003c0-4.774-1.837-7.926-5.506-9.456
		c-3.167-1.062-7.2-1.599-12.107-1.599L486.058,38.386L486.058,38.386z M486.058,77.941v27.32h24.876
		c4.443,0,7.902-0.602,10.376-1.809c4.488-2.227,6.735-6.488,6.735-12.791c0-5.328-2.178-8.989-6.529-10.983
		c-2.427-1.113-5.843-1.688-10.237-1.737H486.058z"/>
	<path fill="#1E120D" d="M583.411,20.59h24.229l36.251,102.465H620.67l-6.761-21.062h-37.732l-6.945,21.062h-22.396L583.411,20.59z
		 M582.003,84.337h26.24l-12.944-40.318L582.003,84.337z"/>
	<path fill="#1E120D" d="M673.515,20.59h21.761v62.932c0,7.038,0.83,12.179,2.494,15.421c2.584,5.74,8.218,8.613,16.901,8.613
		c8.633,0,14.24-2.873,16.831-8.613c1.66-3.242,2.494-8.383,2.494-15.421V20.59h21.757v62.981c0,10.893-1.689,19.371-5.067,25.442
		c-6.293,11.121-18.298,16.683-36.015,16.683c-17.723,0-29.751-5.562-36.09-16.683c-3.378-6.071-5.066-14.552-5.066-25.442V20.59
		L673.515,20.59z"/>
	<path fill="#1E120D" d="M832.26,78.708c-5.999,5.004-14.564,7.507-25.697,7.507h-21.336v36.845h-21.271V20.591h43.996
		c10.143,0,18.229,2.643,24.261,7.924c6.026,5.284,9.045,13.464,9.045,24.54C841.257,65.15,838.256,73.699,832.26,78.708
		 M815.918,41.792c-2.715-2.27-6.512-3.404-11.396-3.404h-19.296v30.169h19.296c4.886,0,8.683-1.228,11.396-3.685
		c2.709-2.457,4.067-6.35,4.067-11.68C819.987,47.865,818.627,44.064,815.918,41.792"/>
	<path fill="#5CAD4B" d="M143.81,66.255C140.989,29.197,110.05,0,72.27,0C56.808,0,42.501,4.906,30.786,13.224L143.81,66.255z"/>
	<path fill="#55B085" d="M22.74,19.861C9.045,32.931,0.499,51.348,0.499,71.775c0,20.426,8.546,38.842,22.241,51.91V19.861z"/>
	<rect x="636.604" y="63.621" fill="#1E120D" width="28.712" height="16.406"/>
	<path fill="#1E120D" d="M263.191,68.07H237.61v17.104h23.705c-1.067,6.677-3.894,12.076-8.48,16.197
		c-4.588,4.121-10.476,6.187-17.657,6.187c-7.324,0-13.857-2.614-19.603-7.843c-5.749-5.227-8.62-14.129-8.62-26.713
		c0-12.486,2.652-21.842,7.958-28.062c5.306-6.222,12.084-9.333,20.334-9.333c4.31,0,8.225,0.766,11.748,2.295
		c6.301,2.78,10.264,7.67,11.888,14.668h21.062c-1.158-9.873-5.688-18.111-13.591-24.714c-7.9-6.604-18.363-9.907-31.385-9.907
		c-15.016,0-27.088,5.004-36.217,15.008c-9.132,10.004-13.695,23.295-13.695,39.875c0,16.396,4.519,29.316,13.556,38.765
		c8.664,9.403,19.788,14.104,33.367,14.104c8.247,0,15.199-1.73,20.855-5.188c3.083-1.858,6.538-4.996,10.357-9.367v11.913h2.92
		h14.183V68.072L263.191,68.07L263.191,68.07z"/>
	<path fill="#009267" d="M143.158,75.816L31.671,23.503v96.533l81.028-38.045l-34.95-15.934v24.141l-8.932,4.213V52.172
		l65.149,29.702L30.782,130.322c11.717,8.318,26.024,13.225,41.487,13.225c38.192,0,69.405-29.832,71.633-67.465
		C143.652,76.011,143.401,75.931,143.158,75.816"/>
</g>
<path d="M870.86-2.025c12.705,0,22.508,9.681,22.508,22.024c0,12.463-9.803,22.265-22.508,22.265
	c-12.587,0-22.508-9.802-22.508-22.265C848.353,7.414,858.517-2.025,870.86-2.025z M870.86,37.907
	c9.921,0,17.183-7.866,17.183-17.789c0-9.922-7.38-17.908-17.304-17.908c-9.804,0-17.184,7.986-17.184,17.908
	C853.556,30.769,861.782,37.907,870.86,37.907z M862.39,31.616V9.229c2.056-0.363,4.718-0.728,8.228-0.728
	c3.991,0,9.804,0.728,9.804,6.535c0,2.663-2.059,4.479-4.6,5.204v0.363c2.176,0.727,3.266,2.541,3.869,5.446
	c0.73,3.389,1.213,4.72,1.694,5.567h-5.081c-0.604-0.847-1.09-2.784-1.695-5.567c-0.846-3.509-2.783-3.509-7.38-3.509v9.076H862.39z
	 M867.347,19.03c3.757,0,7.867,0,7.867-3.388c0-2.056-1.451-3.51-4.957-3.51c-1.455,0-2.423,0.123-2.91,0.242V19.03z"/>
</svg>
